<svg width="152" height="35" viewBox="0 0 152 35" fill="none" xmlns="http://www.w3.org/2000/svg">
<path fill-rule="evenodd" clip-rule="evenodd" d="M14.0155 0.159355C14.3235 -0.0484148 14.7255 -0.0534005 15.0386 0.146666L29.399 9.32266L28.3952 10.8937L14.5506 2.04722L1.86433 10.6038V28.8971H0V10.1082C0 9.79826 0.154004 9.50863 0.41092 9.33535L14.0155 0.159355Z" fill="black"/>
<path d="M21.6314 27.08C20.2714 28.44 18.6874 29.12 16.8794 29.12C15.7594 29.12 14.7034 28.896 13.7114 28.448C12.7354 28 11.8794 27.384 11.1434 26.6C10.4234 25.816 9.84744 24.896 9.41544 23.84C8.99944 22.768 8.79144 21.616 8.79144 20.384C8.79144 19.216 8.99944 18.12 9.41544 17.096C9.84744 16.056 10.4314 15.152 11.1674 14.384C11.9194 13.6 12.7994 12.984 13.8074 12.536C14.8154 12.072 15.9114 11.84 17.0954 11.84C18.6954 11.84 20.0634 12.176 21.1994 12.848C22.3514 13.52 23.2154 14.424 23.7914 15.56L21.3194 17.384C20.8874 16.536 20.2794 15.888 19.4954 15.44C18.7274 14.992 17.8874 14.768 16.9754 14.768C16.2554 14.768 15.5914 14.92 14.9834 15.224C14.3914 15.528 13.8794 15.944 13.4474 16.472C13.0314 17 12.7034 17.608 12.4634 18.296C12.2394 18.984 12.1274 19.712 12.1274 20.48C12.1274 21.28 12.2554 22.032 12.5114 22.736C12.7674 23.424 13.1194 24.024 13.5674 24.536C14.0154 25.048 14.5434 25.456 15.1514 25.76C15.7754 26.048 16.4474 26.192 17.1674 26.192C18.8154 26.192 20.3034 25.416 21.6314 23.864V22.664H18.1994V20.24H24.3674V29H21.6314V27.08ZM34.3661 19.208C33.3901 19.224 32.5181 19.416 31.7501 19.784C30.9821 20.136 30.4301 20.672 30.0941 21.392V29H26.8781V16.424H29.8301V19.112C30.0541 18.68 30.3181 18.296 30.6221 17.96C30.9261 17.608 31.2541 17.304 31.6061 17.048C31.9581 16.792 32.3101 16.6 32.6621 16.472C33.0301 16.328 33.3821 16.256 33.7181 16.256C33.8941 16.256 34.0221 16.256 34.1021 16.256C34.1981 16.256 34.2861 16.264 34.3661 16.28V19.208ZM41.3585 29.24C40.3505 29.24 39.4385 29.072 38.6225 28.736C37.8065 28.384 37.1105 27.912 36.5345 27.32C35.9585 26.728 35.5105 26.04 35.1905 25.256C34.8865 24.472 34.7345 23.648 34.7345 22.784C34.7345 21.888 34.8865 21.048 35.1905 20.264C35.4945 19.464 35.9345 18.768 36.5105 18.176C37.0865 17.568 37.7825 17.088 38.5985 16.736C39.4305 16.384 40.3585 16.208 41.3825 16.208C42.4065 16.208 43.3185 16.384 44.1185 16.736C44.9345 17.088 45.6225 17.56 46.1825 18.152C46.7585 18.744 47.1905 19.432 47.4785 20.216C47.7825 21 47.9345 21.816 47.9345 22.664C47.9345 22.872 47.9265 23.072 47.9105 23.264C47.9105 23.456 47.8945 23.616 47.8625 23.744H38.1425C38.1905 24.24 38.3105 24.68 38.5025 25.064C38.6945 25.448 38.9425 25.776 39.2465 26.048C39.5505 26.32 39.8945 26.528 40.2785 26.672C40.6625 26.816 41.0625 26.888 41.4785 26.888C42.1185 26.888 42.7185 26.736 43.2785 26.432C43.8545 26.112 44.2465 25.696 44.4545 25.184L47.2145 25.952C46.7505 26.912 46.0065 27.704 44.9825 28.328C43.9745 28.936 42.7665 29.24 41.3585 29.24ZM44.6225 21.656C44.5425 20.712 44.1905 19.96 43.5665 19.4C42.9585 18.824 42.2145 18.536 41.3345 18.536C40.9025 18.536 40.4945 18.616 40.1105 18.776C39.7425 18.92 39.4145 19.128 39.1265 19.4C38.8385 19.672 38.5985 20 38.4065 20.384C38.2305 20.768 38.1265 21.192 38.0945 21.656H44.6225ZM69.4297 29H66.2137V21.944C66.2137 20.936 66.0377 20.2 65.6857 19.736C65.3497 19.272 64.8777 19.04 64.2697 19.04C63.6297 19.04 63.0297 19.288 62.4697 19.784C61.9097 20.264 61.5097 20.896 61.2697 21.68V29H58.0537V21.944C58.0537 20.936 57.8777 20.2 57.5257 19.736C57.1897 19.272 56.7177 19.04 56.1097 19.04C55.4857 19.04 54.8857 19.28 54.3097 19.76C53.7497 20.24 53.3497 20.872 53.1097 21.656V29H49.8937V16.424H52.7977V18.752C53.2617 17.936 53.8937 17.312 54.6937 16.88C55.5097 16.432 56.4377 16.208 57.4777 16.208C58.5337 16.208 59.3497 16.464 59.9257 16.976C60.5017 17.488 60.8697 18.12 61.0297 18.872C61.5417 18.008 62.1897 17.352 62.9737 16.904C63.7577 16.44 64.6537 16.208 65.6617 16.208C66.4297 16.208 67.0617 16.352 67.5577 16.64C68.0537 16.928 68.4377 17.304 68.7097 17.768C68.9817 18.232 69.1657 18.76 69.2617 19.352C69.3737 19.944 69.4297 20.544 69.4297 21.152V29ZM72.2296 29V16.424H75.4456V29H72.2296ZM72.2296 14.672V11.48H75.4456V14.672H72.2296ZM84.4244 29V11.96H87.7364V29H84.4244ZM102.668 29H99.4516V21.944C99.4516 20.936 99.2756 20.2 98.9236 19.736C98.5716 19.272 98.0836 19.04 97.4596 19.04C97.1396 19.04 96.8116 19.104 96.4756 19.232C96.1396 19.36 95.8196 19.544 95.5156 19.784C95.2276 20.008 94.9636 20.28 94.7236 20.6C94.4836 20.92 94.3076 21.272 94.1956 21.656V29H90.9796V16.424H93.8836V18.752C94.3476 17.952 95.0196 17.328 95.8996 16.88C96.7796 16.432 97.7716 16.208 98.8756 16.208C99.6596 16.208 100.3 16.352 100.796 16.64C101.292 16.928 101.676 17.304 101.948 17.768C102.22 18.232 102.404 18.76 102.5 19.352C102.612 19.944 102.668 20.544 102.668 21.152V29ZM108.567 29L103.935 16.424H107.247L110.439 26.384L113.655 16.424H116.679L112.047 29H108.567ZM123.765 29.24C122.757 29.24 121.845 29.072 121.029 28.736C120.213 28.384 119.517 27.912 118.941 27.32C118.365 26.728 117.917 26.04 117.597 25.256C117.293 24.472 117.141 23.648 117.141 22.784C117.141 21.888 117.293 21.048 117.597 20.264C117.901 19.464 118.341 18.768 118.917 18.176C119.493 17.568 120.189 17.088 121.005 16.736C121.837 16.384 122.765 16.208 123.789 16.208C124.813 16.208 125.725 16.384 126.525 16.736C127.341 17.088 128.029 17.56 128.589 18.152C129.165 18.744 129.597 19.432 129.885 20.216C130.189 21 130.341 21.816 130.341 22.664C130.341 22.872 130.333 23.072 130.317 23.264C130.317 23.456 130.301 23.616 130.269 23.744H120.549C120.597 24.24 120.717 24.68 120.909 25.064C121.101 25.448 121.349 25.776 121.653 26.048C121.957 26.32 122.301 26.528 122.685 26.672C123.069 26.816 123.469 26.888 123.885 26.888C124.525 26.888 125.125 26.736 125.685 26.432C126.261 26.112 126.653 25.696 126.861 25.184L129.621 25.952C129.157 26.912 128.413 27.704 127.389 28.328C126.381 28.936 125.173 29.24 123.765 29.24ZM127.029 21.656C126.949 20.712 126.597 19.96 125.973 19.4C125.365 18.824 124.621 18.536 123.741 18.536C123.309 18.536 122.901 18.616 122.517 18.776C122.149 18.92 121.821 19.128 121.533 19.4C121.245 19.672 121.005 20 120.813 20.384C120.637 20.768 120.533 21.192 120.501 21.656H127.029ZM137.052 29.24C135.996 29.24 134.964 29.072 133.956 28.736C132.948 28.4 132.084 27.92 131.364 27.296L132.564 25.28C133.332 25.824 134.076 26.24 134.796 26.528C135.532 26.8 136.26 26.936 136.98 26.936C137.62 26.936 138.124 26.816 138.492 26.576C138.86 26.336 139.044 25.992 139.044 25.544C139.044 25.096 138.828 24.768 138.396 24.56C137.964 24.352 137.26 24.112 136.284 23.84C135.468 23.616 134.772 23.4 134.196 23.192C133.62 22.984 133.156 22.752 132.804 22.496C132.452 22.224 132.196 21.92 132.036 21.584C131.876 21.232 131.796 20.816 131.796 20.336C131.796 19.696 131.916 19.12 132.156 18.608C132.412 18.096 132.764 17.664 133.212 17.312C133.66 16.944 134.18 16.664 134.772 16.472C135.38 16.28 136.036 16.184 136.74 16.184C137.684 16.184 138.564 16.32 139.38 16.592C140.212 16.864 140.972 17.304 141.66 17.912L140.364 19.856C139.724 19.376 139.1 19.024 138.492 18.8C137.9 18.576 137.308 18.464 136.716 18.464C136.172 18.464 135.716 18.576 135.348 18.8C134.98 19.024 134.796 19.384 134.796 19.88C134.796 20.104 134.836 20.288 134.916 20.432C135.012 20.576 135.156 20.704 135.348 20.816C135.54 20.928 135.788 21.04 136.092 21.152C136.412 21.248 136.804 21.352 137.268 21.464C138.132 21.688 138.868 21.912 139.476 22.136C140.1 22.36 140.604 22.616 140.988 22.904C141.388 23.192 141.676 23.528 141.852 23.912C142.044 24.28 142.14 24.728 142.14 25.256C142.14 26.488 141.684 27.464 140.772 28.184C139.86 28.888 138.62 29.24 137.052 29.24ZM151.766 28.352C151.334 28.544 150.806 28.736 150.182 28.928C149.558 29.12 148.902 29.216 148.214 29.216C147.766 29.216 147.342 29.16 146.942 29.048C146.558 28.936 146.214 28.76 145.91 28.52C145.622 28.264 145.39 27.944 145.214 27.56C145.038 27.16 144.95 26.68 144.95 26.12V18.896H143.294V16.424H144.95V12.344H148.166V16.424H150.806V18.896H148.166V25.04C148.166 25.488 148.278 25.808 148.502 26C148.742 26.176 149.03 26.264 149.366 26.264C149.702 26.264 150.03 26.208 150.35 26.096C150.67 25.984 150.926 25.888 151.118 25.808L151.766 28.352Z" fill="black"/>
</svg>
